<svg xmlns="http://www.w3.org/2000/svg" width="234" height="129.347" viewBox="0 0 234 129.347">
     <g id="그룹_19" data-name="그룹 19" transform="translate(-551 -206.417)">
          <g id="그룹_20" data-name="그룹 20" transform="translate(551 206.417)">
               <path id="패스_65" data-name="패스 65" d="M295.388,70.809V131.56H280.039V70.809Z"
                    transform="translate(-213.798 -32.448)" fill="#070203" />
               <path id="패스_66" data-name="패스 66"
                    d="M327.509,131.56l-12.5-18.861L303.93,131.56H287.481l19.853-30.487L287.261,70.809h17.33l12.4,18.752,11.183-18.752h16.446L324.66,101.073l20.175,30.487Z"
                    transform="translate(-197.984 -32.448)" fill="#070203" />
               <path id="패스_67" data-name="패스 67"
                    d="M365.932,106.463H321.518q.545,6.588,4.606,10.312A14.194,14.194,0,0,0,336.1,120.5q8.555,0,12.172-7.346h16.558a27.667,27.667,0,0,1-10.092,14.421q-7.45,5.651-18.312,5.646a31.683,31.683,0,0,1-15.735-3.891,27.373,27.373,0,0,1-10.851-11.024,33.7,33.7,0,0,1-3.9-16.449A34.412,34.412,0,0,1,309.78,85.3a26.794,26.794,0,0,1,10.749-10.966,34.516,34.516,0,0,1,31.415-.112,26.264,26.264,0,0,1,10.638,10.583,32.03,32.03,0,0,1,3.783,15.738A36.383,36.383,0,0,1,365.932,106.463Zm-15.464-10.3a12.17,12.17,0,0,0-4.277-9.483,15.145,15.145,0,0,0-10.2-3.569,13.943,13.943,0,0,0-9.6,3.454,15.187,15.187,0,0,0-4.769,9.6Z"
                    transform="translate(-157.076 -33.127)" fill="#070203" />
               <path id="패스_68" data-name="패스 68" d="M343.17,63.6v83.762H327.821V63.6Z"
                    transform="translate(-109.17 -48.245)" fill="#070203" />
               <rect id="사각형_12" data-name="사각형 12" width="15.35" height="15.35" transform="translate(66.24 15.35)"
                    fill="#070203" />
               <rect id="사각형_13" data-name="사각형 13" width="15.35" height="15.35" transform="translate(50.89 0)"
                    fill="#070203" />
               <g id="그룹_19-2" data-name="그룹 19" transform="translate(0 38.361)">
                    <path id="패스_69" data-name="패스 69"
                         d="M259.272,161.8h15.349V131.56h14.338a26,26,0,0,0,14.1-3.952,27.638,27.638,0,0,0,9.977-11.132,31.679,31.679,0,0,0,3.678-15.515,31.061,31.061,0,0,0-3.678-15.4,27.03,27.03,0,0,0-9.977-10.912,26.581,26.581,0,0,0-14.1-3.837H259.272Zm15.349-77.5H284.9a15.862,15.862,0,0,1,7.955,2.083,15.648,15.648,0,0,1,5.92,6.086,15.429,15.429,0,0,1,2.249,8.5,15.885,15.885,0,0,1-2.249,8.66,16.3,16.3,0,0,1-5.92,6.255,15.22,15.22,0,0,1-7.955,2.195h-10.28Z"
                         transform="translate(-259.272 -70.809)" fill="#070203" />
               </g>
          </g>
     </g>
</svg>